<svg xmlns="http://www.w3.org/2000/svg" xmlns:svg="http://www.w3.org/2000/svg" xmlns:xlink="http://www.w3.org/1999/xlink" id="svg2" width="744.094" height="1052.362" version="1.1"><defs id="defs4"><linearGradient id="linearGradient3817"><stop style="stop-color:#000;stop-opacity:1" id="stop3819" offset="0"/><stop style="stop-color:#000;stop-opacity:0" id="stop3821" offset="1"/></linearGradient><linearGradient id="linearGradient3830"><stop style="stop-color:#298133;stop-opacity:1" id="stop3832" offset="0"/><stop style="stop-color:#298133;stop-opacity:0" id="stop3834" offset="1"/></linearGradient><linearGradient id="linearGradient3836" x1="24.301" x2="1357.143" y1="549.012" y2="549.012" gradientTransform="translate(-208.57143,-102.85714)" gradientUnits="userSpaceOnUse" xlink:href="#linearGradient3830"/><clipPath id="clipPath3876" clipPathUnits="userSpaceOnUse"><rect style="fill:#fff;fill-opacity:1;stroke:#001700;stroke-width:1.70000005;stroke-linejoin:miter;stroke-miterlimit:4;stroke-opacity:1;stroke-dasharray:none" id="rect3878" width="618.213" height="406.081" x="84.853" y="167.469"/></clipPath><clipPath id="clipPath3880" clipPathUnits="userSpaceOnUse"><rect style="fill:#fff;fill-opacity:1;stroke:#001700;stroke-width:1.70000005;stroke-linejoin:miter;stroke-miterlimit:4;stroke-opacity:1;stroke-dasharray:none" id="rect3882" width="618.213" height="416.183" x="84.853" y="167.469"/></clipPath><clipPath id="clipPath3876-2" clipPathUnits="userSpaceOnUse"><rect style="fill:#fff;fill-opacity:1;stroke:#001700;stroke-width:1.70000005;stroke-linejoin:miter;stroke-miterlimit:4;stroke-opacity:1;stroke-dasharray:none" id="rect3878-9" width="618.213" height="406.081" x="84.853" y="167.469"/></clipPath><linearGradient id="linearGradient3823" x1="84.853" x2="703.066" y1="409.507" y2="409.507" gradientUnits="userSpaceOnUse" xlink:href="#linearGradient3817"/></defs><metadata id="metadata7"/><g id="layer1"><path style="fill:url(#linearGradient3823);fill-opacity:1;fill-rule:evenodd;stroke:#429c4e;stroke-width:95.40000153;stroke-linejoin:miter;stroke-miterlimit:4;stroke-opacity:1;stroke-dasharray:none" id="path3017" d="m -184.27027,604.04697 8.54054,5.20186 C -132.48992,537.72066 -76.775019,475.25689 -8.4157437,424.16217 58.647412,374.03623 134.43774,335.18748 215.17437,312.74236 c 62.61866,-17.40825 127.86888,-25.38856 192.92186,-23.96899 65.05294,1.42086 129.95474,12.2404 191.87512,32.40605 61.92085,20.1642 120.8085,49.65795 174.32359,86.88732 53.79261,37.30503 102.12853,82.33907 142.67873,133.49309 77.35471,-30.64292 154.55393,-61.32785 231.59773,-92.05479 -77.2419,30.22544 -154.32833,60.49289 -231.25929,90.80235 -40.25132,-51.52609 -141.358,-134.60909 -141.358,-134.60909 0,0 -112.49505,-67.77594 -174.67988,-88.4758 -62.1853,-20.69842 -127.47538,-32.03015 -193.04152,-33.88744 -65.5661,-1.85858 -131.45444,5.75582 -194.83564,22.93266 -20.4131,5.53341 -40.54714,12.07207 -60.32522,19.55998 -59.412822,22.49347 -115.613505,53.55288 -166.5173,91.66043 -67.852509,50.78901 -126.42333,114.1955 -170.82482,186.55884 z" clip-path="url(#clipPath3880)" transform="matrix(0.91013687,-0.14350967,0.15860022,1.005841,-97.41267,86.865392)"/><path style="fill:none;stroke:#000;stroke-width:69.5;stroke-linecap:butt;stroke-linejoin:miter;stroke-miterlimit:4;stroke-opacity:1;stroke-dasharray:none" id="path3846" d="M 504.3524,180.95824 651.16605,375.91258 455.23129,431.44125" clip-path="url(#clipPath3876)" transform="matrix(1.3754209,0,0,1.0707941,-243.74269,-30.502414)"/><path id="path3775" d="m -184.27027,604.04697 8.54054,5.20186 C -132.48992,537.72066 -76.775019,475.25689 -8.4157437,424.16217 58.647412,374.03623 134.43774,335.18748 215.17437,312.74236 c 62.61866,-17.40825 127.86888,-25.38856 192.92186,-23.96899 65.05294,1.42086 129.95474,12.2404 191.87512,32.40605 61.92085,20.1642 120.8085,49.65795 174.32359,86.88732 53.79261,37.30503 102.12853,82.33907 142.67873,133.49309 77.35471,-30.64292 154.55393,-61.32785 231.59773,-92.05479 -77.2419,30.22544 -154.32833,60.49289 -231.25929,90.80235 -40.25132,-51.52609 -141.358,-134.60909 -141.358,-134.60909 0,0 -112.49505,-67.77594 -174.67988,-88.4758 -62.1853,-20.69842 -127.47538,-32.03015 -193.04152,-33.88744 -65.5661,-1.85858 -131.45444,5.75582 -194.83564,22.93266 -20.4131,5.53341 -40.54714,12.07207 -60.32522,19.55998 -59.412822,22.49347 -115.613505,53.55288 -166.5173,91.66043 -67.852509,50.78901 -126.42333,114.1955 -170.82482,186.55884 z" clip-path="url(#clipPath3880)" transform="matrix(-0.91471908,0.11060355,-0.12223391,-1.010905,823.70981,1077.6109)" style="fill:#004100;fill-opacity:1;fill-rule:evenodd;stroke:#429c4e;stroke-width:95.40000153;stroke-linejoin:miter;stroke-miterlimit:4;stroke-opacity:1;stroke-dasharray:none"/><path style="fill:none;stroke:#000;stroke-width:69.5;stroke-linecap:butt;stroke-linejoin:miter;stroke-miterlimit:4;stroke-opacity:1;stroke-dasharray:none" id="path3846-2" d="M 504.3524,180.95824 651.16605,375.91258 455.23129,431.44125" clip-path="url(#clipPath3876-2)" transform="matrix(-1.3754209,0,0,-1.0707941,985.13486,1165.8083)"/></g></svg>